<?xml version="1.0" standalone="no"?>
<!DOCTYPE svg PUBLIC "-//W3C//DTD SVG 20010904//EN"
 "http://www.w3.org/TR/2001/REC-SVG-20010904/DTD/svg10.dtd">
<svg version="1.0" xmlns="http://www.w3.org/2000/svg"
 width="700.000000pt" height="700.000000pt" viewBox="0 0 700.000000 700.000000"
 preserveAspectRatio="xMidYMid meet">
<metadata>
Created by potrace 1.14, written by Peter Selinger 2001-2017
</metadata>
<g transform="translate(0.000000,700.000000) scale(0.100000,-0.100000)"
fill="#000000" stroke="none">
<path d="M3065 6703 c-379 -17 -812 -75 -1130 -153 -835 -205 -1359 -608
-1555 -1197 -88 -264 -117 -613 -61 -723 29 -57 85 -116 136 -143 l40 -22
2990 -3 c3318 -2 3039 -8 3124 64 23 20 54 59 68 88 23 44 28 66 31 161 9 249
-61 563 -176 791 -76 151 -222 337 -359 457 -452 396 -1178 620 -2193 677
-165 9 -732 11 -915 3z"/>
<path d="M345 3806 c-209 -67 -345 -250 -345 -466 0 -245 178 -448 420 -480
102 -13 6058 -13 6160 0 242 32 420 235 420 480 0 192 -103 355 -277 438 l-78
37 -3130 2 c-2511 1 -3138 -1 -3170 -11z"/>
<path d="M465 2196 c-62 -29 -108 -73 -143 -140 l-27 -51 0 -310 c0 -301 1
-313 27 -422 121 -511 481 -881 941 -968 69 -13 353 -15 2237 -15 1884 0 2168
2 2237 15 460 87 820 458 941 968 26 108 26 122 27 412 l0 300 -33 67 c-19 40
-49 81 -74 102 -84 72 193 66 -3107 66 l-2976 0 -50 -24z"/>
</g>
</svg>
